#!OML:ASF X:\für Bonn\!DataBase\2005_08_12_Daniel\c3d\Daniel.ASF
:FULLY-SPECIFIED
:DEGREES
49
root 6.55262 16.342 0.221004 -40.6683 85.9468 -415.334
lowerback 31.5237 -0.906519 0.85
upperback 6.63025 -0.278122 -0.110521
thorax -9.77189 0.0998758 -0.555214
lowerneck -2.91959 -0.0279959 -4.33725
upperneck -16.0169 0.186909 -1.35729
head -4.81676 0.628986 0.274476
rclavicle -6.36111e-015 -2.0276e-014
rhumerus -61.732 -11.417 -78.6249
rradius 34.801
rwrist -11.0988
rhand -26.1241 19.3768
rfingers 7.12502
rthumb 0.42586 -10.6026
lclavicle -6.36111e-015 -2.0276e-014
lhumerus -71.073 19.4539 72.6935
lradius 45.8609
lwrist 14.3157
lhand -7.9811 -11.605
lfingers 7.12502
lthumb 17.927 17.5888
rfemur -44.4552 0.374927 25.879
rtibia 67.1953
rfoot -24.3354 0.378439
rtoes -13.2861
lfemur -43.431 -3.88151 -16.677
ltibia 74.2045
lfoot -32.5124 2.81412
ltoes -13.1321
50
root 6.64992 16.1915 0.221455 -38.3846 85.862 -413.17
lowerback 31.4105 -0.829534 0.838968
upperback 6.23304 -0.233499 -0.182923
thorax -10.1756 0.100966 -0.647319
lowerneck -2.35214 -0.0385705 -4.10998
upperneck -17.2226 0.135652 -1.40519
head -4.79351 0.628256 0.224215
rclavicle -9.14409e-015 2.38542e-015
rhumerus -59.3888 -11.2433 -80.2734
rradius 35.9391
rwrist -10.9795
rhand -26.49 20.4973
rfingers 7.12502
rthumb 0.0724957 -9.48245
lclavicle -9.14409e-015 2.38542e-015
lhumerus -68.0249 18.5075 75.2671
lradius 47.4561
lwrist 16.2702
lhand -8.62903 -11.3801
lfingers 7.12502
lthumb 17.3035 17.8696
rfemur -44.8189 0.6106 25.8654
rtibia 68.6547
rfoot -26.0873 0.308349
rtoes -13.824
lfemur -43.3773 -4.02001 -16.876
ltibia 75.117
lfoot -34.322 3.37561
ltoes -13.0348
51
root 6.74957 16.0587 0.22266 -36.4638 85.7676 -411.351
lowerback 31.2129 -0.764475 0.831038
upperback 5.8278 -0.202158 -0.233741
thorax -10.5483 0.09545 -0.711506
lowerneck -1.74291 -0.0283492 -3.99064
upperneck -17.907 0.116642 -1.41627
head -5.10609 0.634813 0.198481
rclavicle -1.98785e-015 -1.19271e-015
rhumerus -56.492 -10.8717 -82.0278
rradius 36.7167
rwrist -10.5269
rhand -26.7009 21.7958
rfingers 7.12502
rthumb -0.131182 -8.18395
lclavicle -1.98785e-015 -1.19271e-015
lhumerus -64.9171 17.1652 77.9299
lradius 49.5112
lwrist 18.0371
lhand -9.21805 -11.2786
lfingers 7.12502
lthumb 16.7365 18.0199
rfemur -45.0485 0.833949 25.8774
rtibia 69.8363
rfoot -27.6349 0.180119
rtoes -14.4059
lfemur -43.1764 -4.15459 -17.0588
ltibia 75.7884
lfoot -35.8698 3.96911
ltoes -13.132
52
root 6.85631 15.949 0.223901 -34.3586 85.6678 -409.316
lowerback 30.9346 -0.700978 0.839694
upperback 5.42615 -0.171244 -0.310855
thorax -10.8772 0.088709 -0.81511
lowerneck -1.14934 -0.0173006 -3.85411
upperneck -18.3937 0.0978203 -1.42721
head -5.35634 0.631391 0.170612
rclavicle -1.66979e-014 -1.74931e-014
rhumerus -53.2693 -10.0932 -84.0782
rradius 37.7477
rwrist -10.1198
rhand -26.8835 22.6968
rfingers 7.12502
rthumb -0.307543 -7.28272
lclavicle -1.66979e-014 -1.74931e-014
lhumerus -61.7756 15.5386 80.4199
lradius 51.7927
lwrist 19.5646
lhand -9.75 -11.4212
lfingers 7.12502
lthumb 16.2244 17.9199
rfemur -45.0946 1.06601 25.8661
rtibia 70.7528
rfoot -29.0016 -0.0137288
rtoes -15.0283
lfemur -42.7835 -4.31536 -17.2729
ltibia 76.2265
lfoot -37.166 4.61828
ltoes -13.1855
53
root 6.97016 15.8637 0.22631 -32.3699 85.5364 -407.332
lowerback 30.6521 -0.645654 0.872571
upperback 5.02313 -0.140553 -0.379105
thorax -11.2052 0.0811082 -0.922674
lowerneck -0.716716 -0.00536012 -3.8145
upperneck -18.5605 0.0856802 -1.42011
head -5.4811 0.624256 0.165756
rclavicle -9.54166e-015 -3.18055e-014
rhumerus -49.8115 -8.81279 -86.3221
rradius 39.16
rwrist -9.7318
rhand -27.097 22.9953
rfingers 7.12502
rthumb -0.51375 -6.98379
lclavicle -9.54166e-015 -3.18055e-014
lhumerus -58.8134 13.6403 82.717
lradius 54.7514
lwrist 20.8034
lhand -10.2473 -11.4549
lfingers 7.12502
lthumb 15.7455 17.9246
rfemur -44.8809 1.30788 25.8557
rtibia 71.3693
rfoot -30.2077 -0.185247
rtoes -15.4149
lfemur -42.1753 -4.43609 -17.4906
ltibia 76.4492
lfoot -38.3724 5.32364
ltoes -13.63
54
root 7.08895 15.7937 0.228665 -30.7334 85.4037 -405.685
lowerback 30.3064 -0.626062 0.988787
upperback 4.63811 -0.12984 -0.465059
thorax -11.4806 0.0611953 -1.09091
lowerneck -0.463352 0.0110014 -3.90447
upperneck -18.4745 0.0966381 -1.31967
head -5.49734 0.622106 0.212022
rclavicle -3.57812e-015 1.43125e-014
rhumerus -45.9701 -7.32474 -88.5312
rradius 40.3235
rwrist -9.1193
rhand -27.4831 23.2114
rfingers 7.12502
rthumb -0.886643 -6.76648
lclavicle -3.57812e-015 1.43125e-014
lhumerus -55.0983 11.8992 84.5555
lradius 56.9397
lwrist 21.4357
lhand -10.5386 -11.8111
lfingers 7.12502
lthumb 15.4649 17.5903
rfemur -44.4747 1.6058 25.857
rtibia 71.7374
rfoot -31.3279 -0.415906
rtoes -15.9369
lfemur -41.479 -4.53875 -17.7036
ltibia 76.5204
lfoot -39.3857 6.04343
ltoes -14.1435
55
root 7.21436 15.739 0.231312 -29.0979 85.2655 -403.994
lowerback 29.9409 -0.624058 1.15397
upperback 4.25535 -0.131331 -0.596993
thorax -11.7429 0.0320583 -1.33552
lowerneck -0.367448 0.0266872 -3.95801
upperneck -18.1402 0.114723 -1.21847
head -5.40921 0.612114 0.253229
rclavicle -1.03368e-014 3.18055e-015
rhumerus -41.7622 -5.56647 -90.7175
rradius 41.0477
rwrist -8.34608
rhand -28.1354 23.6026
rfingers 7.12502
rthumb -1.51664 -6.37179
lclavicle -1.03368e-014 3.18055e-015
lhumerus -50.1523 10.2943 85.974
lradius 57.5638
lwrist 21.5409
lhand -10.7301 -12.5269
lfingers 7.12502
lthumb 15.2805 16.8886
rfemur -43.8158 1.96648 25.8281
rtibia 71.8294
rfoot -32.3649 -0.618136
rtoes -16.1421
lfemur -40.6375 -4.62727 -17.9262
ltibia 76.4255
lfoot -40.2891 6.73994
ltoes -14.8334
